<?xml version="1.0" standalone="no"?>
<!DOCTYPE svg PUBLIC "-//W3C//DTD SVG 20010904//EN" "http://www.w3.org/TR/2001/REC-SVG-20010904/DTD/svg10.dtd">
<!-- Created using Krita: http://krita.org -->
<svg xmlns="http://www.w3.org/2000/svg" 
    xmlns:xlink="http://www.w3.org/1999/xlink"
    xmlns:krita="http://krita.org/namespaces/svg/krita"
    xmlns:sodipodi="http://sodipodi.sourceforge.net/DTD/sodipodi-0.dtd"
    width="1440pt"
    height="864pt"
    viewBox="0 0 1440 864">
<defs/>
<ellipse id="shape0" transform="translate(1038.95999942008, 226.800000289957)" rx="112.68" ry="92.16" cx="112.68" cy="92.16" fill="none" stroke="white" stroke-width="0.0072" stroke-linecap="square" stroke-linejoin="bevel"/><path id="shape1" transform="translate(-675.412519688319, -363.992624456186)" fill="white" fill-rule="evenodd" stroke="#ff0000" stroke-width="0.0072" stroke-linecap="square" stroke-linejoin="bevel" d="M1433.41 404.514L1348.58 489.805L1468.73 609.955L876.143 609.955L876.143 613.659L993.279 730.795L1589.57 730.795L1655.19 796.412L1589.28 862.257L1124.74 862.257L1245.58 983.097L1468.31 983.097L1357.56 1093.74L1403.28 1140.79L1440.8 1178.31L1450.53 1168.67L1460.64 1158.65L1470.59 1148.79L1480.37 1139.09L1489.99 1129.55L1499.45 1120.17L1508.74 1110.96L1517.88 1101.91L1526.85 1093.02L1535.65 1084.29L1544.3 1075.72L1552.78 1067.31L1561.1 1059.07L1569.25 1050.99L1577.24 1043.07L1585.07 1035.31L1592.74 1027.71L1600.24 1020.27L1607.58 1012.99L1614.76 1005.88L1621.78 998.927L1628.63 992.136L1635.32 985.507L1641.84 979.039L1648.21 972.732L1654.41 966.587L1660.45 960.604L1666.32 954.782L1672.03 949.121L1677.58 943.622L1682.97 938.285L1688.19 933.109L1693.25 928.094L1698.15 923.241L1702.88 918.55L1707.46 914.02L1711.86 909.652L1716.11 905.445L1720.19 901.4L1724.11 897.516L1727.87 893.793L1731.47 890.233L1734.9 886.833L1738.17 883.595L1741.27 880.519L1744.22 877.604L1747 874.851L1749.61 872.259L1752.07 869.829L1754.36 867.561L1756.49 865.453L1758.45 863.508L1760.26 861.724L1761.9 860.101L1763.37 858.64L1764.69 857.34L1765.84 856.202L1766.83 855.225L1767.65 854.41L1768.32 853.757L1768.82 853.265L1769.15 852.934L1769.33 852.765L1771.77 850.405L1774.12 848.077L1776.38 845.783L1778.54 843.522L1780.6 841.294L1782.57 839.1L1784.45 836.938L1786.23 834.809L1787.91 832.714L1789.5 830.652L1790.99 828.623L1792.39 826.627L1793.69 824.664L1794.9 822.735L1796.01 820.838L1797.03 818.975L1797.95 817.144L1798.78 815.347L1799.51 813.583L1800.15 811.853L1800.69 810.155L1801.14 808.491L1801.49 806.859L1801.74 805.261L1801.9 803.696L1801.97 802.164L1801.94 800.665L1801.81 799.199L1801.59 797.767L1801.28 796.367L1800.87 795.001L1801.14 793.496L1801.32 791.962L1801.41 790.399L1801.42 788.807L1801.33 787.186L1801.16 785.536L1800.9 783.857L1800.56 782.149L1800.12 780.412L1799.6 778.646L1798.98 776.851L1798.28 775.027L1797.49 773.174L1796.62 771.292L1795.65 769.382L1794.6 767.442L1793.45 765.473L1792.22 763.475L1790.91 761.448L1789.5 759.393L1788 757.308L1786.42 755.194L1784.75 753.052L1782.99 750.88L1781.14 748.679L1779.2 746.45L1779.08 746.231L1778.78 745.844L1778.31 745.289L1777.66 744.567L1776.84 743.676L1775.85 742.617L1774.69 741.39L1773.35 739.996L1771.84 738.433L1770.16 736.702L1768.3 734.803L1766.27 732.736L1764.07 730.501L1761.7 728.098L1759.15 725.527L1756.43 722.788L1753.53 719.881L1750.47 716.805L1747.23 713.562L1743.81 710.151L1740.23 706.572L1736.47 702.825L1732.54 698.909L1728.43 694.826L1724.16 690.575L1719.7 686.155L1715.08 681.568L1710.28 676.812L1705.31 671.889L1700.17 666.797L1694.86 661.538L1689.37 656.11L1683.7 650.515L1677.87 644.751L1671.86 638.819L1665.68 632.72L1659.33 626.452L1652.8 620.016L1646.1 613.413L1639.23 606.641L1632.18 599.701L1624.96 592.593L1617.57 585.317L1610.01 577.873L1602.27 570.261L1594.36 562.481L1586.28 554.533L1578.02 546.417L1569.59 538.133L1560.99 529.681L1552.21 521.061L1543.26 512.273L1534.14 503.317L1524.85 494.193L1515.38 484.9L1505.74 475.44L1495.92 465.812L1485.94 456.016L1475.78 446.051L1465.44 435.919L1454.94 425.618L1444.26 415.15L1433.41 404.514"/>
</svg>
